HIERARCHY
ROOT hip
{
	OFFSET 0.000000 0.000000 0.000000 
	CHANNELS 6 Xposition Yposition Zposition Xrotation Zrotation Yrotation
	JOINT abdomen
	{
		OFFSET 0.000000 3.402643 0.000000 
		CHANNELS 3 Xrotation Zrotation Yrotation
		JOINT chest
		{
			OFFSET 0.000000 8.438565 -0.680529 
			CHANNELS 3 Xrotation Zrotation Yrotation
			JOINT neck
			{
				OFFSET 0.000000 10.207942 -0.272212 
				CHANNELS 3 Xrotation Zrotation Yrotation
				JOINT head
				{
					OFFSET 0.000000 3.130431 0.000000 
					CHANNELS 3 Xrotation Zrotation Yrotation
					End Site
					{
						OFFSET 0.000000 3.130435 0.000000 
					}
				}
			}
			JOINT lCollar
			{
				OFFSET 3.470700 6.669187 -0.816635 
				CHANNELS 3 Yrotation Zrotation Xrotation
				JOINT lShldr
				{
					OFFSET 3.198488 0.000000 0.000000 
					CHANNELS 3 Zrotation Yrotation Xrotation
					JOINT lForeArm
					{
						OFFSET 10.139888 0.000000 0.000000 
						CHANNELS 3 Yrotation Zrotation Xrotation
						JOINT lHand
						{
							OFFSET 8.370511 0.000000 0.000000 
							CHANNELS 3 Zrotation Yrotation Xrotation
							End Site
							{
								OFFSET 4.083176 0.000000 0.000000 
							}
						}
					}
				}
			}
			JOINT rCollar
			{
				OFFSET -3.470700 6.669187 -0.816635 
				CHANNELS 3 Yrotation Zrotation Xrotation
				JOINT rShldr
				{
					OFFSET -3.198488 0.000000 0.000000 
					CHANNELS 3 Zrotation Yrotation Xrotation
					JOINT rForeArm
					{
						OFFSET -10.139888 0.000000 0.000000 
						CHANNELS 3 Yrotation Zrotation Xrotation
						JOINT rHand
						{
							OFFSET -8.370511 0.000000 0.000000 
							CHANNELS 3 Zrotation Yrotation Xrotation
							End Site
							{
								OFFSET -4.083176 0.000000 0.000000 
							}
						}
					}
				}
			}
		}
	}
	JOINT lThigh
	{
		OFFSET 5.308129 -1.633274 1.361059 
		CHANNELS 3 Xrotation Zrotation Yrotation
		JOINT lShin
		{
			OFFSET -2.041588 -20.007561 0.000000 
			CHANNELS 3 Xrotation Zrotation Yrotation
			JOINT lFoot
			{
				OFFSET 0.000000 -19.190928 -1.224953 
				CHANNELS 3 Xrotation Yrotation Zrotation
				End Site
				{
					OFFSET 0.000000 -2.449906 4.627600 
				}
			}
		}
	}
	JOINT rThigh
	{
		OFFSET -5.308129 -1.633274 1.361059 
		CHANNELS 3 Xrotation Zrotation Yrotation
		JOINT rShin
		{
			OFFSET 2.041588 -20.007561 0.000000 
			CHANNELS 3 Xrotation Zrotation Yrotation
			JOINT rFoot
			{
				OFFSET 0.000000 -19.190928 -1.224953 
				CHANNELS 3 Xrotation Yrotation Zrotation
				End Site
				{
					OFFSET 0.000000 -2.449906 4.627600 
				}
			}
		}
	}
}
MOTION
Frames: 10
Frame Time: 0.011111
29.217674 51.183136 -9.664408 5.861640 -1.975115 0.975039 21.205647 2.832023 5.976042 -23.786415 0.988077 1.328031 -11.632188 -1.028011 -1.666617 18.355236 4.076530 -2.716219 -7.198545 -2.255300 -0.324897 -70.415840 -29.186802 27.384466 -56.489708 8.892732 10.859440 8.524705 12.647240 -26.224010 5.113256 1.510366 0.237230 76.577003 18.079889 -12.513992 41.730278 -5.355153 5.008599 -8.533279 -12.636986 32.728661 -14.491305 8.329602 5.980796 70.075005 -1.529453 -8.892367 -3.737154 4.386374 -2.856475 -22.434624 0.859423 -1.107262 38.001915 4.798125 5.845967 -16.533730 11.223160 6.564642 
29.230543 51.298988 -8.845508 5.979715 -2.165255 0.892367 20.928963 2.848710 6.203714 -23.815630 0.943316 1.398177 -11.259951 -0.850853 -1.690179 18.266756 3.836507 -2.740866 -7.198545 -2.255300 -0.324897 -70.871269 -28.023409 26.397793 -54.837761 8.644220 10.154684 8.524705 12.647240 -27.610731 5.113256 1.510366 0.237230 76.184029 18.952770 -8.300202 42.677593 -5.668408 5.346666 -8.533279 -12.636986 35.882957 -16.671505 8.803081 5.951199 70.347473 -1.500850 -8.921910 -5.295297 4.459547 -2.767925 -21.226257 1.142447 -0.860384 37.574123 4.845045 5.803942 -17.153864 11.455161 6.731181 
29.252991 51.397354 -8.030238 5.989100 -2.044786 0.865382 20.777275 2.537716 6.323994 -23.659346 0.854397 1.463307 -11.162836 -0.559104 -1.792020 18.263102 3.415669 -2.947400 -7.198545 -2.255300 -0.324897 -71.236084 -26.917162 25.392078 -53.371731 8.392769 9.532999 8.524705 12.647240 -29.007215 5.113256 1.510366 0.237230 75.792824 20.218904 -5.081968 43.658722 -5.984021 5.710994 -8.533279 -12.636986 37.806789 -18.537979 8.892310 5.945968 70.376755 -1.500383 -8.923754 -6.855624 4.313457 -2.657402 -19.904230 1.044372 -0.739761 37.038815 4.890322 5.722587 -17.657404 11.841785 6.964740 
29.272463 51.440590 -7.241045 6.066317 -1.808349 0.936967 20.681734 2.068804 6.326833 -23.503077 0.833004 1.515256 -11.389390 -0.626110 -1.839147 18.662003 3.632138 -3.043505 -7.198545 -2.255300 -0.324897 -71.516632 -25.947847 24.543167 -51.764050 8.082568 8.865585 8.524705 12.647240 -30.335339 5.113256 1.510366 0.237230 75.273247 21.727386 -2.308468 44.725220 -6.312677 6.111660 -8.533279 -12.636986 39.398582 -20.403107 8.746205 5.964264 70.142921 -1.539325 -8.913574 -8.024303 3.833582 -2.640773 -18.706270 0.732457 -0.920623 36.456291 4.905466 5.657094 -18.034342 12.476626 7.259618 
29.284344 51.390087 -6.503341 6.042205 -2.899017 0.576942 20.952387 3.059398 7.149095 -23.620186 0.519033 1.635424 -11.319812 -0.804347 -1.746574 18.648781 4.180161 -2.786673 -7.198545 -2.255300 -0.324897 -71.688705 -25.151562 23.668621 -49.671406 7.618500 8.016150 8.524705 12.647240 -31.614634 5.113256 1.510366 0.237230 74.748619 22.852339 1.500205 46.125229 -6.718717 6.641925 -8.533279 -12.636986 42.923977 -22.870331 10.341596 6.107136 69.996513 -1.539260 -8.902784 -8.788669 3.066118 -2.702185 -17.279076 2.128545 -0.668961 35.799381 4.972533 5.570671 -18.283987 12.832837 7.436818 
29.366205 51.466331 -5.561986 5.749325 -2.920185 0.343950 20.850700 3.068158 7.436297 -23.395748 0.203216 1.718641 -10.842022 -0.803969 -1.778067 18.425491 4.504292 -2.800725 -7.198545 -2.255300 -0.324897 -71.785423 -24.039013 22.343460 -47.550587 7.090401 7.176242 8.524705 12.647240 -33.313854 5.113256 1.510366 0.237230 74.436531 23.419571 5.424517 47.874130 -7.193316 7.320971 -8.533279 -12.636986 47.777493 -23.766562 10.398662 6.350168 69.119675 -1.637118 -8.835900 -10.641527 1.888779 -2.767489 -15.387330 2.002059 -0.973383 35.154991 5.003969 5.503788 -18.306339 14.144548 7.990853 
29.402840 51.492085 -4.700507 5.810274 -3.298142 0.096462 20.614422 3.361053 7.906130 -23.600744 0.008885 1.824657 -10.319517 -0.901591 -1.922940 18.401253 4.672409 -3.039397 -7.198545 -2.255300 -0.324897 -72.177673 -22.690578 19.833530 -45.712170 6.591338 6.472775 8.524705 12.647240 -36.311897 5.113256 1.510366 0.237230 73.965843 23.852592 8.481580 49.808464 -7.662396 8.081813 -8.533279 -12.636986 51.244289 -25.448116 10.897869 6.279623 68.076645 -1.784196 -8.777015 -12.667345 0.380668 -2.999859 -13.977853 2.401416 -1.065421 34.518768 5.050797 5.422575 -18.427149 14.956851 8.350465 
29.423304 51.466667 -3.899431 5.970050 -3.788250 -0.111554 20.545807 3.750113 8.285558 -23.815443 -0.049699 1.886458 -10.271582 -0.990207 -1.929002 18.624798 4.626899 -3.062848 -7.198545 -2.255300 -0.324897 -72.656441 -21.689871 16.835903 -43.842136 6.029015 5.772796 8.524705 12.647240 -39.573616 5.113256 1.510366 0.237230 73.296257 24.560097 11.067679 51.744225 -8.088589 8.873199 -8.533279 -12.636986 53.539211 -27.385057 11.499753 5.970699 66.691948 -1.949831 -8.682064 -14.135295 -0.321135 -3.106588 -12.777966 2.977829 -1.059898 34.020279 5.090085 5.380067 -18.872263 15.538749 8.671566 
29.471493 51.447193 -3.070958 6.119965 -4.200292 -0.214464 20.357958 4.186597 8.554811 -23.757107 -0.333112 1.929138 -10.583430 -0.874005 -1.935727 19.143253 4.544982 -3.051978 -7.198545 -2.255300 -0.324897 -72.850632 -20.887323 13.819019 -41.902588 5.399394 5.057478 8.524705 12.647240 -42.649792 5.113256 1.510366 0.237230 72.732079 25.583286 12.656093 53.479588 -8.426724 9.591833 -8.533279 -12.636986 54.144680 -29.128193 11.903107 5.543331 64.985428 -2.163192 -8.539283 -15.732836 -0.372364 -3.057857 -11.467073 3.288636 -1.605171 33.592457 5.125048 5.303398 -19.348509 16.323257 9.125247 
29.537508 51.439930 -2.198917 6.277831 -4.340098 -0.378853 20.010534 4.289641 8.906234 -23.562191 -0.677688 2.021129 -10.651938 -0.848912 -1.947248 19.292845 4.900786 -3.022022 -7.198545 -2.255300 -0.324897 -72.862167 -20.128984 10.342660 -40.015682 4.741031 4.392428 8.524705 12.647240 -46.487686 5.113256 1.510366 0.237230 72.235352 26.672562 13.064362 55.273090 -8.723203 10.347433 -8.533279 -12.636986 52.670071 -30.418224 11.962255 5.288844 62.906506 -2.406636 -8.368896 -15.409858 0.184373 -2.916494 -10.266041 3.190310 -2.689763 33.155579 5.149338 5.233151 -19.586367 17.149969 9.542402 
